<svg width="815" height="395" xmlns="http://www.w3.org/2000/svg" xmlns:xlink="http://www.w3.org/1999/xlink" overflow="hidden"><defs><clipPath id="clip0"><rect x="101" y="125" width="815" height="395"/></clipPath></defs><g clip-path="url(#clip0)" transform="translate(-101 -125)"><path d="M2-9.6673e-07 2.0001 213.24-1.9999 213.24-2 9.6673e-07ZM8.72766 202.248 0.000104579 217.209-8.72746 202.248C-9.28402 201.294-8.96175 200.069-8.00764 199.512-7.05354 198.956-5.82891 199.278-5.27234 200.232L1.72766 212.232-1.72746 212.232 5.27254 200.232C5.8291 199.278 7.05373 198.956 8.00784 199.512 8.96194 200.069 9.28422 201.294 8.72766 202.248Z" transform="matrix(1 0 0 -1 249 424.2)"/><path d="M2-9.66184e-07 2.0001 213.363-1.9999 213.363-2 9.66184e-07ZM8.72766 202.371 0.00010458 217.332-8.72746 202.371C-9.28402 201.416-8.96175 200.192-8.00764 199.635-7.05354 199.079-5.82891 199.401-5.27234 200.355L1.72766 212.355-1.72746 212.355 5.27254 200.355C5.8291 199.401 7.05373 199.079 8.00784 199.635 8.96194 200.192 9.28422 201.416 8.72766 202.371Z" transform="matrix(6.12323e-17 1 1 -6.12323e-17 249 424)"/><rect x="287" y="251" width="34" height="144" fill="#4472C4"/><rect x="287" y="292" width="68" height="102" fill="#4472C4"/><rect x="287" y="327" width="102" height="67" fill="#4472C4"/><rect x="287" y="351" width="136" height="44" fill="#4472C4"/><path d="M311 252.5C311 248.91 314.134 246 318 246 321.866 246 325 248.91 325 252.5 325 256.09 321.866 259 318 259 314.134 259 311 256.09 311 252.5Z" fill="#44546A" fill-rule="evenodd"/><path d="M347 292.5C347 288.91 349.91 286 353.5 286 357.09 286 360 288.91 360 292.5 360 296.09 357.09 299 353.5 299 349.91 299 347 296.09 347 292.5Z" fill="#44546A" fill-rule="evenodd"/><path d="M380 325.5C380 321.91 382.91 319 386.5 319 390.09 319 393 321.91 393 325.5 393 329.09 390.09 332 386.5 332 382.91 332 380 329.09 380 325.5Z" fill="#44546A" fill-rule="evenodd"/><path d="M414 351.5C414 347.91 416.91 345 420.5 345 424.09 345 427 347.91 427 351.5 427 355.09 424.09 358 420.5 358 416.91 358 414 355.09 414 351.5Z" fill="#44546A" fill-rule="evenodd"/><path d="M282 392.5C282 388.91 284.91 386 288.5 386 292.09 386 295 388.91 295 392.5 295 396.09 292.09 399 288.5 399 284.91 399 282 396.09 282 392.5Z" fill-rule="evenodd"/><text font-family="Cambria Math,Cambria Math_MSFontService,sans-serif" font-weight="400" font-size="21" transform="translate(327.664 244)">𝑝<tspan font-size="15" x="10.66" y="5">1</tspan><tspan font-size="21" x="35.6731" y="37">𝑝</tspan><tspan font-size="15" x="46.8265" y="41">2</tspan><tspan font-size="21" x="73.0636" y="67">𝑝</tspan><tspan font-size="15" x="84.2169" y="71">3</tspan><tspan font-size="21" x="110.625" y="102">𝑝</tspan><tspan font-size="15" x="121.625" y="107">4</tspan><tspan font-size="21" x="-31.9112" y="168">𝑟𝑒𝑓</tspan><tspan font-size="27" x="17.0035" y="206">𝑦</tspan><tspan font-size="20" x="30.5768" y="211">1</tspan><tspan font-size="27" x="-115.843" y="86">𝑦</tspan><tspan font-size="20" x="-101.65" y="92">2</tspan></text><rect x="608" y="271" width="89" height="117" fill="#FF0000" fill-opacity="0.6"/><path d="M2-9.6673e-07 2.0001 213.24-1.9999 213.24-2 9.6673e-07ZM8.72766 202.248 0.000104579 217.209-8.72746 202.248C-9.28402 201.294-8.96175 200.069-8.00764 199.512-7.05354 198.956-5.82891 199.278-5.27234 200.232L1.72766 212.232-1.72746 212.232 5.27254 200.232C5.8291 199.278 7.05373 198.956 8.00784 199.512 8.96194 200.069 9.28422 201.294 8.72766 202.248Z" transform="matrix(1 0 0 -1 570 424.2)"/><path d="M2-9.66184e-07 2.0001 213.363-1.9999 213.363-2 9.66184e-07ZM8.72766 202.371 0.00010458 217.332-8.72746 202.371C-9.28402 201.416-8.96175 200.192-8.00764 199.635-7.05354 199.079-5.82891 199.401-5.27234 200.355L1.72766 212.355-1.72746 212.355 5.27254 200.355C5.8291 199.401 7.05373 199.079 8.00784 199.635 8.96194 200.192 9.28422 201.416 8.72766 202.371Z" transform="matrix(6.12323e-17 1 1 -6.12323e-17 570 424)"/><rect x="608" y="251" width="34" height="144" fill="#4472C4"/><rect x="608" y="292" width="68" height="102" fill="#4472C4"/><rect x="608" y="327" width="102" height="67" fill="#4472C4"/><rect x="608" y="351" width="136" height="44" fill="#4472C4"/><path d="M633 252.5C633 248.91 635.91 246 639.5 246 643.09 246 646 248.91 646 252.5 646 256.09 643.09 259 639.5 259 635.91 259 633 256.09 633 252.5Z" fill="#44546A" fill-rule="evenodd"/><path d="M668 292.5C668 288.91 671.134 286 675 286 678.866 286 682 288.91 682 292.5 682 296.09 678.866 299 675 299 671.134 299 668 296.09 668 292.5Z" fill="#44546A" fill-rule="evenodd"/><path d="M702 325.5C702 321.91 704.91 319 708.5 319 712.09 319 715 321.91 715 325.5 715 329.09 712.09 332 708.5 332 704.91 332 702 329.09 702 325.5Z" fill="#44546A" fill-rule="evenodd"/><path d="M735 351.5C735 347.91 738.134 345 742 345 745.866 345 749 347.91 749 351.5 749 355.09 745.866 358 742 358 738.134 358 735 355.09 735 351.5Z" fill="#44546A" fill-rule="evenodd"/><path d="M604 392.5C604 388.91 606.91 386 610.5 386 614.09 386 617 388.91 617 392.5 617 396.09 614.09 399 610.5 399 606.91 399 604 396.09 604 392.5Z" fill-rule="evenodd"/><text font-family="Cambria Math,Cambria Math_MSFontService,sans-serif" font-weight="400" font-size="21" transform="translate(649.008 244)">𝑝<tspan font-size="15" x="10.66" y="5">1</tspan><tspan font-size="21" x="1.87921" y="67">𝑝</tspan><tspan font-size="15" x="13.0326" y="71">2</tspan><tspan font-size="21" x="73.0636" y="67">𝑝</tspan><tspan font-size="15" x="84.2169" y="71">3</tspan><tspan font-size="21" x="110.625" y="102">𝑝</tspan><tspan font-size="15" x="121.625" y="107">4</tspan><tspan font-size="21" x="-31.9111" y="168">𝑟𝑒𝑓</tspan></text><path d="M688 271.5C688 267.91 691.134 265 695 265 698.866 265 702 267.91 702 271.5 702 275.09 698.866 278 695 278 691.134 278 688 275.09 688 271.5Z" fill="#FF0000" fill-rule="evenodd"/><text fill="#FF0000" font-family="Cambria Math,Cambria Math_MSFontService,sans-serif" font-weight="400" font-size="21" transform="translate(705.869 260)">𝑝<tspan font-size="15" x="12.3" y="-8">′</tspan><tspan fill="#000000" font-size="27" x="-36.5173" y="187">𝑦</tspan><tspan fill="#000000" font-size="20" x="-22.944" y="193">1</tspan><tspan fill="#000000" font-size="27" x="-174.049" y="67">𝑦</tspan><tspan fill="#000000" font-size="20" x="-159.856" y="72">2</tspan><tspan fill="#000000" font-family="Calibri,Calibri_MSFontService,sans-serif" font-weight="700" font-size="32" x="-487.548" y="-63">a</tspan><tspan fill="#000000" font-family="Calibri,Calibri_MSFontService,sans-serif" font-weight="700" font-size="32" x="-167.549" y="-63">b</tspan></text></g></svg>