<svg width="712" height="557" xmlns="http://www.w3.org/2000/svg" xmlns:xlink="http://www.w3.org/1999/xlink" overflow="hidden"><defs><clipPath id="clip0"><rect x="90" y="99" width="712" height="557"/></clipPath></defs><g clip-path="url(#clip0)" transform="translate(-90 -99)"><path d="M160.5 231.464C160.5 206.631 180.631 186.5 205.464 186.5L555.536 186.5C580.369 186.5 600.5 206.631 600.5 231.464L600.5 503.536C600.5 528.369 580.369 548.5 555.536 548.5L205.464 548.5C180.631 548.5 160.5 528.369 160.5 503.536Z" stroke="#7F7F7F" stroke-width="3" stroke-miterlimit="8" stroke-dasharray="12 9" fill="#FFFFFF" fill-rule="evenodd"/><path d="M199.5 501.5 295.5 472.5 391.5 501.5 295.5 530.5Z" stroke="#000000" stroke-width="3" stroke-miterlimit="8" fill="#FFFFFF" fill-rule="evenodd"/><path d="M204.5 388.167C204.5 382.828 208.828 378.5 214.167 378.5L375.833 378.5C381.172 378.5 385.5 382.828 385.5 388.167L385.5 426.833C385.5 432.172 381.172 436.5 375.833 436.5L214.167 436.5C208.828 436.5 204.5 432.172 204.5 426.833Z" stroke="#000000" stroke-width="3" stroke-miterlimit="8" fill="#FFFFFF" fill-rule="evenodd"/><text font-family="Arial,Arial_MSFontService,sans-serif" font-weight="400" font-size="19" transform="translate(226.076 402)">Surrogate model <tspan font-size="19" x="49.0867" y="23">(GP)</tspan></text><path d="M415.5 388.167C415.5 382.828 419.828 378.5 425.167 378.5L569.833 378.5C575.172 378.5 579.5 382.828 579.5 388.167L579.5 426.833C579.5 432.172 575.172 436.5 569.833 436.5L425.167 436.5C419.828 436.5 415.5 432.172 415.5 426.833Z" stroke="#000000" stroke-width="3" stroke-miterlimit="8" fill="#FFFFFF" fill-rule="evenodd"/><text font-family="Arial,Arial_MSFontService,sans-serif" font-weight="400" font-size="19" transform="translate(451.68 402)">Acquisition <tspan font-size="19" x="12.5" y="23">function</tspan></text><path d="M204.5 228.167C204.5 222.828 208.828 218.5 214.167 218.5L375.833 218.5C381.172 218.5 385.5 222.828 385.5 228.167L385.5 266.833C385.5 272.172 381.172 276.5 375.833 276.5L214.167 276.5C208.828 276.5 204.5 272.172 204.5 266.833Z" stroke="#000000" stroke-width="3" stroke-miterlimit="8" fill="#F8CBAD" fill-rule="evenodd"/><text font-family="Arial,Arial_MSFontService,sans-serif" font-weight="400" font-size="19" transform="translate(220.793 243)">Objective function<tspan font-family="Cambria Math,Cambria Math_MSFontService,sans-serif" font-size="19" x="54.3933" y="23">ğ‘“</tspan><tspan font-family="Cambria Math,Cambria Math_MSFontService,sans-serif" font-size="19" x="65.2733" y="23">(</tspan><tspan font-family="Cambria Math,Cambria Math_MSFontService,sans-serif" font-size="19" x="72.94" y="23">ğ‘¿</tspan><tspan font-family="Cambria Math,Cambria Math_MSFontService,sans-serif" font-size="19" x="85.94" y="23">)</tspan></text><path d="M1.5-1.53963e-06 1.5001 94.7845-1.4999 94.7845-1.5 1.53963e-06ZM4.5001 93.2845 0.000104987 102.285-4.4999 93.2845Z" transform="matrix(-1 0 0 1 295.5 276.5)"/><text font-family="Arial,Arial_MSFontService,sans-serif" font-weight="400" font-size="19" transform="translate(402.594 215)">New trials, <tspan font-family="Cambria Math,Cambria Math_MSFontService,sans-serif" font-size="19" x="92.1667" y="0">ğ‘¿</tspan><tspan font-family="Cambria Math,Cambria Math_MSFontService,sans-serif" font-size="14" x="105.167" y="4">ğ’ğ’†ğ’˜</tspan><tspan font-size="19" x="0" y="23">Infill points</tspan></text><path d="M0-1.5 132.585-1.5 132.585 103.993 129.585 103.993 129.585 0 131.085 1.5 0 1.5ZM135.585 102.493 131.085 111.493 126.585 102.493Z" transform="matrix(-1.83697e-16 -1 -1 1.83697e-16 496.993 378.585)"/><path d="M297 530.5 297 574.614 294 574.614 294 530.5ZM300 573.114 295.5 582.114 291 573.114Z"/><text font-family="Arial,Arial_MSFontService,sans-serif" font-weight="400" font-size="19" transform="translate(231.823 508)">Search further?</text><path d="M297 436.5 297 465.752 294 465.752 294 436.5ZM300 464.252 295.5 473.252 291 464.252Z"/><path d="M224.5 606C224.5 593.021 256.288 582.5 295.5 582.5 334.712 582.5 366.5 593.021 366.5 606 366.5 618.979 334.712 629.5 295.5 629.5 256.288 629.5 224.5 618.979 224.5 606Z" stroke="#000000" stroke-width="3" stroke-miterlimit="8" fill="#C5E0B4" fill-rule="evenodd"/><text font-family="Arial,Arial_MSFontService,sans-serif" font-weight="400" font-size="19" transform="translate(254.058 611)">Terminate<tspan font-size="19" x="138.56" y="-117">Yes</tspan><tspan font-size="19" x="51.3495" y="-45">No</tspan><tspan font-weight="700" font-size="19" x="143.334" y="-434">Active learning loop</tspan></text><path d="M297 175.5 297 210.861 294 210.861 294 175.5ZM300 209.361 295.5 218.361 291 209.361Z"/><path d="M204.5 128C204.5 122.753 208.753 118.5 214 118.5L376 118.5C381.247 118.5 385.5 122.753 385.5 128L385.5 166C385.5 171.247 381.247 175.5 376 175.5L214 175.5C208.753 175.5 204.5 171.247 204.5 166Z" stroke="#000000" stroke-width="3" stroke-miterlimit="8" fill="#FFFFFF" fill-rule="evenodd"/><text font-family="Arial,Arial_MSFontService,sans-serif" font-weight="400" font-size="19" transform="translate(233.243 142)">Initial sampling<tspan font-size="19" x="35.1667" y="23">(DOE)</tspan></text><path d="M0-1.5 107.437-1.5 107.437 58.0521 104.437 58.0521 104.437 0 105.937 1.5 0 1.5ZM110.437 56.5521 105.937 65.5521 101.437 56.5521Z" transform="matrix(1 0 0 -1 391.5 502.052)"/><path d="M331.5 305.5C331.5 300.53 335.53 296.5 340.5 296.5L455.5 296.5C460.471 296.5 464.5 300.53 464.5 305.5L464.5 341.5C464.5 346.471 460.471 350.5 455.5 350.5L340.5 350.5C335.53 350.5 331.5 346.471 331.5 341.5Z" stroke="#000000" stroke-width="3" stroke-miterlimit="8" fill="#FFFFFF" fill-rule="evenodd"/><text font-family="Arial,Arial_MSFontService,sans-serif" font-weight="400" font-size="19" transform="translate(345.45 330)">Visualization</text><path d="M0-1.5 13.8434-1.5 13.8434 48.9831 10.8434 48.9831 10.8434 0 12.3434 1.5 0 1.5ZM16.8434 47.4831 12.3434 56.4831 7.84341 47.4831Z" transform="matrix(1 0 0 -1 385.5 406.983)"/><path d="M0-1.5 56.5828-1.5 56.5828 25.3029 53.5828 25.3029 53.5828 0 55.0828 1.5 0 1.5ZM59.5828 23.8029 55.0828 32.8029 50.5828 23.8029Z" transform="matrix(-1.83697e-16 -1 -1 1.83697e-16 497.303 378.583)"/><text font-family="Arial,Arial_MSFontService,sans-serif" font-weight="400" font-size="19" transform="translate(179.54 345)">Training data<tspan font-family="Cambria Math,Cambria Math_MSFontService,sans-serif" font-size="19" x="121.146" y="-139">ğ‘¿</tspan><tspan font-family="Cambria Math,Cambria Math_MSFontService,sans-serif" font-size="14" x="134.146" y="-136">ğ’Šğ’ğ’Šğ’•</tspan><tspan font-family="Cambria Math,Cambria Math_MSFontService,sans-serif" font-size="19" x="69.8343" y="22">ğ‘¿</tspan><tspan font-family="Cambria Math,Cambria Math_MSFontService,sans-serif" font-size="19" x="82.8343" y="22">,</tspan><tspan font-family="Cambria Math,Cambria Math_MSFontService,sans-serif" font-size="19" x="89.781" y="22">ğ’€</tspan></text></g></svg>